<svg width="167" height="99" viewBox="0 0 167 99" fill="none" xmlns="http://www.w3.org/2000/svg">
<path d="M119.148 32.4907C93.6962 32.6269 69.3653 38.7163 51.4495 49.434C33.5338 60.1516 23.483 74.63 23.4844 89.7186C23.4844 90.9494 22.6597 92.1298 21.1916 93.0001C19.7236 93.8703 17.7324 94.3593 15.6563 94.3593C13.5801 94.3593 11.589 93.8703 10.121 93.0001C8.65292 92.1298 7.82817 90.9494 7.82817 89.7186C7.80097 72.161 19.4966 55.3105 40.36 42.8485C61.2233 30.3865 89.5586 23.3259 119.175 23.2092L129.599 27.8436L119.148 32.4907ZM114.291 50.1186L156.041 31.5561C157.013 31.1239 157.802 30.5634 158.345 29.919C158.889 29.2746 159.172 28.5641 159.172 27.8436C159.172 27.1232 158.889 26.4127 158.345 25.7683C157.802 25.1239 157.013 24.5634 156.041 24.1311L114.291 5.56865C112.63 4.83018 110.542 4.51311 108.487 4.68716C106.431 4.86122 104.577 5.51216 103.331 6.49677C102.086 7.48139 101.551 8.71903 101.844 9.93743C102.138 11.1558 103.236 12.2552 104.897 12.9936L138.297 27.8436L104.897 42.6936C104.075 43.0593 103.382 43.5174 102.858 44.0418C102.334 44.5662 101.99 45.1466 101.844 45.7499C101.699 46.3532 101.755 46.9675 102.011 47.5579C102.266 48.1482 102.714 48.703 103.331 49.1905C104.577 50.1751 106.431 50.8261 108.487 51.0001C109.504 51.0863 110.541 51.0528 111.537 50.9016C112.532 50.7503 113.468 50.4843 114.291 50.1186V50.1186Z" fill="white"/>
</svg>
