<svg width="171" height="52" viewBox="0 0 171 52" fill="none" xmlns="http://www.w3.org/2000/svg">
<rect width="171" height="52" rx="24" fill="black"/>
<path d="M55.3584 28.5435H61.7598V30H53.5679V16.4922H55.3584V28.5435ZM67.688 30.1855C66.3273 30.1855 65.2202 29.7402 64.3667 28.8496C63.5132 27.9528 63.0864 26.756 63.0864 25.2593V24.9438C63.0864 23.9481 63.2751 23.0605 63.6523 22.2812C64.0358 21.4958 64.5677 20.8835 65.248 20.4443C65.9346 19.999 66.6768 19.7764 67.4746 19.7764C68.7796 19.7764 69.7939 20.2062 70.5176 21.0659C71.2412 21.9256 71.603 23.1564 71.603 24.7583V25.4727H64.8027C64.8275 26.4622 65.1151 27.2632 65.6655 27.8755C66.2222 28.4816 66.9272 28.7847 67.7808 28.7847C68.3869 28.7847 68.9002 28.661 69.3208 28.4136C69.7414 28.1662 70.1094 27.8384 70.4248 27.4302L71.4731 28.2466C70.632 29.5392 69.3703 30.1855 67.688 30.1855ZM67.4746 21.1865C66.7819 21.1865 66.2005 21.4401 65.7305 21.9473C65.2604 22.4482 64.9697 23.1533 64.8584 24.0625H69.8867V23.9326C69.8372 23.0605 69.6022 22.3864 69.1816 21.9102C68.7611 21.4277 68.1921 21.1865 67.4746 21.1865ZM75.9263 17.5312V19.9619H77.8003V21.2886H75.9263V27.5137C75.9263 27.9157 76.0098 28.2188 76.1768 28.4229C76.3438 28.6208 76.6283 28.7197 77.0303 28.7197C77.2282 28.7197 77.5003 28.6826 77.8467 28.6084V30C77.3952 30.1237 76.9561 30.1855 76.5293 30.1855C75.7624 30.1855 75.1841 29.9536 74.7944 29.4897C74.4048 29.0259 74.21 28.3672 74.21 27.5137V21.2886H72.3823V19.9619H74.21V17.5312H75.9263ZM79.9341 20.2959L78.96 19.6279C79.5352 18.8239 79.832 17.9766 79.8506 17.0859V15.75H81.5483V16.9561C81.5422 17.5745 81.3875 18.193 81.0845 18.8115C80.7876 19.4238 80.4041 19.9186 79.9341 20.2959ZM88.4229 27.3374C88.4229 26.8735 88.2466 26.5148 87.894 26.2612C87.5477 26.0015 86.9385 25.7788 86.0664 25.5933C85.2005 25.4077 84.5109 25.1851 83.9976 24.9253C83.4904 24.6655 83.1131 24.3563 82.8657 23.9976C82.6245 23.6388 82.5039 23.2121 82.5039 22.7173C82.5039 21.8947 82.8503 21.1989 83.543 20.6299C84.2419 20.0609 85.1325 19.7764 86.2148 19.7764C87.3529 19.7764 88.2744 20.0701 88.9795 20.6577C89.6908 21.2453 90.0464 21.9967 90.0464 22.9121H88.3208C88.3208 22.4421 88.1198 22.0369 87.7178 21.6968C87.3219 21.3566 86.821 21.1865 86.2148 21.1865C85.5902 21.1865 85.1016 21.3226 84.749 21.5947C84.3965 21.8669 84.2202 22.2225 84.2202 22.6616C84.2202 23.076 84.3841 23.3883 84.7119 23.5986C85.0397 23.8089 85.6304 24.0099 86.4839 24.2017C87.3436 24.3934 88.0394 24.6222 88.5713 24.8882C89.1032 25.1541 89.4959 25.4757 89.7495 25.853C90.0093 26.2241 90.1392 26.6787 90.1392 27.2168C90.1392 28.1136 89.7804 28.8341 89.063 29.3784C88.3455 29.9165 87.4147 30.1855 86.2705 30.1855C85.4665 30.1855 84.7552 30.0433 84.1367 29.7588C83.5182 29.4743 83.0327 29.0785 82.6802 28.5713C82.3338 28.0579 82.1606 27.5044 82.1606 26.9106H83.877C83.9079 27.4858 84.1367 27.9435 84.5635 28.2837C84.9964 28.6177 85.5654 28.7847 86.2705 28.7847C86.9199 28.7847 87.4395 28.6548 87.8291 28.395C88.2249 28.1291 88.4229 27.7765 88.4229 27.3374ZM96.6797 24.8975C96.6797 23.3327 97.0415 22.0895 97.7651 21.168C98.4888 20.2402 99.4474 19.7764 100.641 19.7764C101.866 19.7764 102.821 20.2093 103.508 21.0752L103.591 19.9619H105.159V29.7588C105.159 31.0576 104.773 32.0812 104 32.8296C103.233 33.578 102.2 33.9521 100.901 33.9521C100.177 33.9521 99.4691 33.7975 98.7764 33.4883C98.0837 33.179 97.5549 32.7554 97.1899 32.2173L98.0806 31.1875C98.8166 32.0967 99.7165 32.5513 100.78 32.5513C101.615 32.5513 102.265 32.3162 102.729 31.8462C103.199 31.3761 103.434 30.7144 103.434 29.8608V28.998C102.747 29.7897 101.81 30.1855 100.623 30.1855C99.4474 30.1855 98.495 29.7124 97.7651 28.7661C97.0415 27.8198 96.6797 26.5303 96.6797 24.8975ZM98.4053 25.0923C98.4053 26.2241 98.6372 27.1147 99.1011 27.7642C99.5649 28.4074 100.214 28.729 101.049 28.729C102.132 28.729 102.926 28.2373 103.434 27.2539V22.6709C102.908 21.7122 102.119 21.2329 101.068 21.2329C100.233 21.2329 99.5804 21.5576 99.1104 22.207C98.6403 22.8564 98.4053 23.8182 98.4053 25.0923ZM107.302 24.8882C107.302 23.9048 107.494 23.0203 107.877 22.2349C108.267 21.4494 108.805 20.8433 109.492 20.4165C110.184 19.9897 110.973 19.7764 111.857 19.7764C113.224 19.7764 114.328 20.2495 115.169 21.1958C116.017 22.1421 116.44 23.4007 116.44 24.9717V25.0923C116.44 26.0695 116.252 26.9478 115.875 27.7271C115.503 28.5002 114.968 29.1032 114.27 29.5361C113.577 29.9691 112.779 30.1855 111.876 30.1855C110.515 30.1855 109.411 29.7124 108.564 28.7661C107.723 27.8198 107.302 26.5674 107.302 25.0088V24.8882ZM109.028 25.0923C109.028 26.2056 109.285 27.0993 109.798 27.7734C110.317 28.4476 111.01 28.7847 111.876 28.7847C112.748 28.7847 113.441 28.4445 113.954 27.7642C114.467 27.0776 114.724 26.119 114.724 24.8882C114.724 23.7873 114.461 22.8966 113.936 22.2163C113.416 21.5298 112.723 21.1865 111.857 21.1865C111.01 21.1865 110.327 21.5236 109.807 22.1978C109.288 22.8719 109.028 23.8368 109.028 25.0923ZM120.513 26.187H118.964L118.843 16.4922H120.643L120.513 26.187ZM118.778 29.1372C118.778 28.8589 118.862 28.627 119.029 28.4414C119.202 28.2497 119.456 28.1538 119.79 28.1538C120.124 28.1538 120.377 28.2497 120.55 28.4414C120.723 28.627 120.81 28.8589 120.81 29.1372C120.81 29.4155 120.723 29.6475 120.55 29.833C120.377 30.0124 120.124 30.1021 119.79 30.1021C119.456 30.1021 119.202 30.0124 119.029 29.833C118.862 29.6475 118.778 29.4155 118.778 29.1372Z" fill="white"/>
</svg>
